<mxfile host="app.diagrams.net" modified="2023-10-26T15:33:28.975Z" agent="Mozilla/5.0 (Macintosh; Intel Mac OS X 10_15_7) AppleWebKit/537.36 (KHTML, like Gecko) Chrome/118.0.0.0 Safari/537.36" etag="AmEzD3TMu8F6tFJUmrK3" version="22.0.8" type="device">
  <diagram name="PÃ¡gina-1" id="EM6crfa3shj2-9QgIarh">
    <mxGraphModel dx="1194" dy="641" grid="1" gridSize="10" guides="1" tooltips="1" connect="1" arrows="1" fold="1" page="1" pageScale="1" pageWidth="827" pageHeight="1169" math="0" shadow="0">
      <root>
        <mxCell id="0" />
        <mxCell id="1" parent="0" />
        <mxCell id="ut3qqGEc8KGKoZDs4Zqt-1" value="grupo/interprete" style="rounded=0;whiteSpace=wrap;html=1;" vertex="1" parent="1">
          <mxGeometry x="50" y="190" width="120" height="60" as="geometry" />
        </mxCell>
        <mxCell id="ut3qqGEc8KGKoZDs4Zqt-2" value="musica" style="rounded=0;whiteSpace=wrap;html=1;" vertex="1" parent="1">
          <mxGeometry x="660" y="190" width="120" height="60" as="geometry" />
        </mxCell>
        <mxCell id="ut3qqGEc8KGKoZDs4Zqt-3" value="disco" style="rounded=0;whiteSpace=wrap;html=1;" vertex="1" parent="1">
          <mxGeometry x="369" y="190" width="90" height="60" as="geometry" />
        </mxCell>
        <mxCell id="ut3qqGEc8KGKoZDs4Zqt-4" value="tem" style="rhombus;whiteSpace=wrap;html=1;" vertex="1" parent="1">
          <mxGeometry x="240" y="180" width="80" height="80" as="geometry" />
        </mxCell>
        <mxCell id="ut3qqGEc8KGKoZDs4Zqt-5" value="" style="endArrow=none;html=1;rounded=0;exitX=0;exitY=0.5;exitDx=0;exitDy=0;entryX=1;entryY=0.5;entryDx=0;entryDy=0;" edge="1" parent="1" source="ut3qqGEc8KGKoZDs4Zqt-4" target="ut3qqGEc8KGKoZDs4Zqt-1">
          <mxGeometry width="50" height="50" relative="1" as="geometry">
            <mxPoint x="390" y="110" as="sourcePoint" />
            <mxPoint x="470" y="220" as="targetPoint" />
          </mxGeometry>
        </mxCell>
        <mxCell id="ut3qqGEc8KGKoZDs4Zqt-6" value="" style="endArrow=none;html=1;rounded=0;exitX=1;exitY=0.5;exitDx=0;exitDy=0;" edge="1" parent="1" source="ut3qqGEc8KGKoZDs4Zqt-4" target="ut3qqGEc8KGKoZDs4Zqt-3">
          <mxGeometry width="50" height="50" relative="1" as="geometry">
            <mxPoint x="390" y="220" as="sourcePoint" />
            <mxPoint x="240" y="220" as="targetPoint" />
          </mxGeometry>
        </mxCell>
        <mxCell id="ut3qqGEc8KGKoZDs4Zqt-7" value="1" style="text;html=1;align=center;verticalAlign=middle;resizable=0;points=[];autosize=1;strokeColor=none;fillColor=none;" vertex="1" parent="1">
          <mxGeometry x="181" y="188" width="30" height="30" as="geometry" />
        </mxCell>
        <mxCell id="ut3qqGEc8KGKoZDs4Zqt-9" value="ID_grupo_interprete" style="text;html=1;align=left;verticalAlign=middle;resizable=0;points=[];autosize=1;strokeColor=none;fillColor=none;" vertex="1" parent="1">
          <mxGeometry x="79" y="255" width="130" height="30" as="geometry" />
        </mxCell>
        <mxCell id="ut3qqGEc8KGKoZDs4Zqt-10" value="Nome" style="text;html=1;align=left;verticalAlign=middle;resizable=0;points=[];autosize=1;strokeColor=none;fillColor=none;" vertex="1" parent="1">
          <mxGeometry x="79" y="275" width="60" height="30" as="geometry" />
        </mxCell>
        <mxCell id="ut3qqGEc8KGKoZDs4Zqt-11" value="ID_disco" style="text;html=1;align=left;verticalAlign=middle;resizable=0;points=[];autosize=1;strokeColor=none;fillColor=none;" vertex="1" parent="1">
          <mxGeometry x="400" y="250" width="70" height="30" as="geometry" />
        </mxCell>
        <mxCell id="ut3qqGEc8KGKoZDs4Zqt-12" value="Titulo" style="text;html=1;align=left;verticalAlign=middle;resizable=0;points=[];autosize=1;strokeColor=none;fillColor=none;" vertex="1" parent="1">
          <mxGeometry x="400" y="270" width="50" height="30" as="geometry" />
        </mxCell>
        <mxCell id="ut3qqGEc8KGKoZDs4Zqt-13" value="data_gravacao" style="text;html=1;align=left;verticalAlign=middle;resizable=0;points=[];autosize=1;strokeColor=none;fillColor=none;" vertex="1" parent="1">
          <mxGeometry x="400" y="290" width="100" height="30" as="geometry" />
        </mxCell>
        <mxCell id="ut3qqGEc8KGKoZDs4Zqt-15" value="tem" style="rhombus;whiteSpace=wrap;html=1;" vertex="1" parent="1">
          <mxGeometry x="520" y="180" width="90" height="80" as="geometry" />
        </mxCell>
        <mxCell id="ut3qqGEc8KGKoZDs4Zqt-16" value="" style="endArrow=none;html=1;rounded=0;exitX=1;exitY=0.5;exitDx=0;exitDy=0;entryX=0;entryY=0.5;entryDx=0;entryDy=0;" edge="1" parent="1" source="ut3qqGEc8KGKoZDs4Zqt-15" target="ut3qqGEc8KGKoZDs4Zqt-2">
          <mxGeometry width="50" height="50" relative="1" as="geometry">
            <mxPoint x="610" y="110" as="sourcePoint" />
            <mxPoint x="640" y="220" as="targetPoint" />
          </mxGeometry>
        </mxCell>
        <mxCell id="ut3qqGEc8KGKoZDs4Zqt-17" value="" style="endArrow=none;html=1;rounded=0;exitX=0;exitY=0.5;exitDx=0;exitDy=0;entryX=1;entryY=0.5;entryDx=0;entryDy=0;" edge="1" parent="1" source="ut3qqGEc8KGKoZDs4Zqt-15" target="ut3qqGEc8KGKoZDs4Zqt-3">
          <mxGeometry width="50" height="50" relative="1" as="geometry">
            <mxPoint x="610" y="110" as="sourcePoint" />
            <mxPoint x="490" y="220" as="targetPoint" />
          </mxGeometry>
        </mxCell>
        <mxCell id="ut3qqGEc8KGKoZDs4Zqt-18" value="Nome" style="text;html=1;align=left;verticalAlign=middle;resizable=0;points=[];autosize=1;strokeColor=none;fillColor=none;" vertex="1" parent="1">
          <mxGeometry x="690" y="152" width="60" height="30" as="geometry" />
        </mxCell>
        <mxCell id="ut3qqGEc8KGKoZDs4Zqt-20" value="ID_Musica" style="text;html=1;align=left;verticalAlign=middle;resizable=0;points=[];autosize=1;strokeColor=none;fillColor=none;" vertex="1" parent="1">
          <mxGeometry x="690" y="132" width="80" height="30" as="geometry" />
        </mxCell>
        <mxCell id="ut3qqGEc8KGKoZDs4Zqt-22" value="N" style="text;html=1;align=center;verticalAlign=middle;resizable=0;points=[];autosize=1;strokeColor=none;fillColor=none;" vertex="1" parent="1">
          <mxGeometry x="465" y="188" width="30" height="30" as="geometry" />
        </mxCell>
        <mxCell id="ut3qqGEc8KGKoZDs4Zqt-23" value="N" style="text;html=1;align=center;verticalAlign=middle;resizable=0;points=[];autosize=1;strokeColor=none;fillColor=none;" vertex="1" parent="1">
          <mxGeometry x="625" y="198" width="30" height="30" as="geometry" />
        </mxCell>
        <mxCell id="ut3qqGEc8KGKoZDs4Zqt-28" value="NumCopiasVendidas" style="text;html=1;align=left;verticalAlign=middle;resizable=0;points=[];autosize=1;strokeColor=none;fillColor=none;" vertex="1" parent="1">
          <mxGeometry x="400" y="314" width="140" height="30" as="geometry" />
        </mxCell>
        <mxCell id="ut3qqGEc8KGKoZDs4Zqt-29" value="autor" style="rounded=0;whiteSpace=wrap;html=1;" vertex="1" parent="1">
          <mxGeometry x="670" y="385" width="120" height="60" as="geometry" />
        </mxCell>
        <mxCell id="ut3qqGEc8KGKoZDs4Zqt-30" value="tem" style="rhombus;whiteSpace=wrap;html=1;" vertex="1" parent="1">
          <mxGeometry x="680" y="280" width="80" height="80" as="geometry" />
        </mxCell>
        <mxCell id="ut3qqGEc8KGKoZDs4Zqt-31" value="" style="endArrow=none;html=1;rounded=0;entryX=0.5;entryY=1;entryDx=0;entryDy=0;exitX=0.5;exitY=0;exitDx=0;exitDy=0;" edge="1" parent="1" source="ut3qqGEc8KGKoZDs4Zqt-30" target="ut3qqGEc8KGKoZDs4Zqt-2">
          <mxGeometry width="50" height="50" relative="1" as="geometry">
            <mxPoint x="390" y="360" as="sourcePoint" />
            <mxPoint x="440" y="310" as="targetPoint" />
          </mxGeometry>
        </mxCell>
        <mxCell id="ut3qqGEc8KGKoZDs4Zqt-32" value="" style="endArrow=none;html=1;rounded=0;entryX=0.5;entryY=1;entryDx=0;entryDy=0;exitX=0.417;exitY=0;exitDx=0;exitDy=0;exitPerimeter=0;" edge="1" parent="1" source="ut3qqGEc8KGKoZDs4Zqt-29" target="ut3qqGEc8KGKoZDs4Zqt-30">
          <mxGeometry width="50" height="50" relative="1" as="geometry">
            <mxPoint x="390" y="360" as="sourcePoint" />
            <mxPoint x="440" y="310" as="targetPoint" />
          </mxGeometry>
        </mxCell>
        <mxCell id="ut3qqGEc8KGKoZDs4Zqt-33" value="N" style="text;html=1;align=center;verticalAlign=middle;resizable=0;points=[];autosize=1;strokeColor=none;fillColor=none;" vertex="1" parent="1">
          <mxGeometry x="695" y="247" width="30" height="30" as="geometry" />
        </mxCell>
        <mxCell id="ut3qqGEc8KGKoZDs4Zqt-34" value="N" style="text;html=1;align=center;verticalAlign=middle;resizable=0;points=[];autosize=1;strokeColor=none;fillColor=none;" vertex="1" parent="1">
          <mxGeometry x="685" y="358" width="30" height="30" as="geometry" />
        </mxCell>
        <mxCell id="ut3qqGEc8KGKoZDs4Zqt-35" value="N" style="text;html=1;align=center;verticalAlign=middle;resizable=0;points=[];autosize=1;strokeColor=none;fillColor=none;" vertex="1" parent="1">
          <mxGeometry x="340" y="188" width="30" height="30" as="geometry" />
        </mxCell>
        <mxCell id="ut3qqGEc8KGKoZDs4Zqt-36" value="Nome" style="text;html=1;align=left;verticalAlign=middle;resizable=0;points=[];autosize=1;strokeColor=none;fillColor=none;" vertex="1" parent="1">
          <mxGeometry x="695" y="480" width="60" height="30" as="geometry" />
        </mxCell>
        <mxCell id="ut3qqGEc8KGKoZDs4Zqt-37" value="ID_Autor" style="text;html=1;align=left;verticalAlign=middle;resizable=0;points=[];autosize=1;strokeColor=none;fillColor=none;" vertex="1" parent="1">
          <mxGeometry x="695" y="460" width="70" height="30" as="geometry" />
        </mxCell>
      </root>
    </mxGraphModel>
  </diagram>
</mxfile>
